<svg width="52" height="52" viewBox="0 0 52 52" fill="none" xmlns="http://www.w3.org/2000/svg">
<path d="M6.0671 50.0004C3.82094 50.0004 2 48.1795 2 45.9333C2 43.6872 3.82094 41.8662 6.0671 41.8662C8.31326 41.8662 10.1342 43.6872 10.1342 45.9333C10.1342 48.1795 8.31326 50.0004 6.0671 50.0004Z" stroke="#059669" stroke-width="2.87957" stroke-miterlimit="10" stroke-linecap="round" stroke-linejoin="round"/>
<path d="M26.0007 50.0004C23.7545 50.0004 21.9336 48.1795 21.9336 45.9333C21.9336 43.6872 23.7545 41.8662 26.0007 41.8662C28.2469 41.8662 30.0678 43.6872 30.0678 45.9333C30.0678 48.1795 28.2469 50.0004 26.0007 50.0004Z" stroke="#059669" stroke-width="2.87957" stroke-miterlimit="10" stroke-linecap="round" stroke-linejoin="round"/>
<path d="M45.9343 50.0004C43.6881 50.0004 41.8672 48.1795 41.8672 45.9333C41.8672 43.6872 43.6881 41.8662 45.9343 41.8662C48.1804 41.8662 50.0014 43.6872 50.0014 45.9333C50.0014 48.1795 48.1804 50.0004 45.9343 50.0004Z" stroke="#059669" stroke-width="2.87957" stroke-miterlimit="10" stroke-linecap="round" stroke-linejoin="round"/>
<path d="M6.06641 41.8559V37.7888C6.06641 35.5426 7.88735 33.7217 10.1335 33.7217H17.861" stroke="#059669" stroke-width="2.87957" stroke-miterlimit="10" stroke-linecap="round" stroke-linejoin="round"/>
<path d="M34.1289 33.7217H41.8564C44.1026 33.7217 45.9235 35.5426 45.9235 37.7888V41.8559" stroke="#059669" stroke-width="2.87957" stroke-miterlimit="10" stroke-linecap="round" stroke-linejoin="round"/>
<path d="M26 30.4521V41.84" stroke="#059669" stroke-width="2.87957" stroke-miterlimit="10" stroke-linecap="round" stroke-linejoin="round"/>
<path d="M28.0335 6.0743L25.1526 3.19336C24.3884 2.42923 23.3521 2 22.2715 2H17.8477C15.5976 2 13.7734 3.82417 13.7734 6.0743V18.2972C13.7734 20.5473 15.5976 22.3715 17.8477 22.3715H34.1449C36.3951 22.3715 38.2192 20.5473 38.2192 18.2972V10.1486C38.2192 7.89847 36.3951 6.0743 34.1449 6.0743H28.0335Z" stroke="#059669" stroke-width="2.87957" stroke-miterlimit="10" stroke-linecap="round" stroke-linejoin="round"/>
</svg>
