<svg width="48" height="48" viewBox="0 0 48 48" fill="none" xmlns="http://www.w3.org/2000/svg">
<path d="M5.55859 22.7963V9.31055" stroke="#F97316" stroke-width="3" stroke-miterlimit="10" stroke-linecap="round" stroke-linejoin="round"/>
<path d="M41.6049 24.4988V10.1613C41.6049 8.81271 40.5403 7.74805 39.1917 7.74805H35.9268H18.6797" stroke="#F97316" stroke-width="3" stroke-miterlimit="10" stroke-linecap="round" stroke-linejoin="round"/>
<path d="M11.2266 22.796V15.0605" stroke="#F97316" stroke-width="3" stroke-miterlimit="10" stroke-linecap="round" stroke-linejoin="round"/>
<path d="M18.5332 7.74805L11.2227 15.0577H16.12C17.4685 15.0577 18.5332 13.9932 18.5332 12.6448V7.74805Z" stroke="#F97316" stroke-width="3" stroke-miterlimit="10" stroke-linecap="round" stroke-linejoin="round"/>
<path d="M12.9961 1.99707H30.1723H33.5081C34.8567 1.99707 35.9213 3.06158 35.9213 4.40996V7.74543" stroke="#F97316" stroke-width="3" stroke-miterlimit="10" stroke-linecap="round" stroke-linejoin="round"/>
<path d="M12.8691 1.99707L5.55859 9.30672H10.4559C11.8045 9.30672 12.8691 8.24221 12.8691 6.89382V1.99707Z" stroke="#F97316" stroke-width="3" stroke-miterlimit="10" stroke-linecap="round" stroke-linejoin="round"/>
<path d="M23.512 28.1824L19.5374 23.4269C19.1825 23.001 18.6857 22.7881 18.1179 22.7881H5.41318C4.06464 22.7881 3 23.8527 3 25.2013V29.318V43.5845C3 44.933 4.13561 45.9977 5.41318 45.9977H41.6819C43.0304 45.9977 44.095 44.933 44.095 43.5845V28.1824H23.512Z" stroke="#F97316" stroke-width="3" stroke-miterlimit="10" stroke-linecap="round" stroke-linejoin="round"/>
<path d="M20.5882 30.3931L17.2523 26.4189H7.8125" stroke="#F97316" stroke-width="3" stroke-miterlimit="10" stroke-linecap="round" stroke-linejoin="round"/>
<path d="M22.5273 13.5059H36.2967" stroke="#F97316" stroke-width="3" stroke-miterlimit="10" stroke-linecap="round" stroke-linejoin="round"/>
<path d="M16.6094 18.6768H36.2697" stroke="#F97316" stroke-width="3" stroke-miterlimit="10" stroke-linecap="round" stroke-linejoin="round"/>
<path d="M20.5898 24.4922H41.5277H41.6697C43.0182 24.4922 44.0829 25.5567 44.0829 26.9051V31.518" stroke="#F97316" stroke-width="3" stroke-miterlimit="10" stroke-linecap="round" stroke-linejoin="round"/>
<path d="M38.6935 34.4238H30.5312" stroke="#F97316" stroke-width="3" stroke-miterlimit="10" stroke-linecap="round" stroke-linejoin="round"/>
<path d="M38.7021 38.3408H33.3789" stroke="#F97316" stroke-width="3" stroke-miterlimit="10" stroke-linecap="round" stroke-linejoin="round"/>
</svg>
