<svg width="48" height="48" viewBox="0 0 48 48" fill="none" xmlns="http://www.w3.org/2000/svg">
<mask id="mask0_2959_73489" style="mask-type:luminance" maskUnits="userSpaceOnUse" x="0" y="0" width="48" height="48">
<path d="M46.6797 46.6797V1.32031H1.32031V46.6797H46.6797Z" fill="white" stroke="white" stroke-width="2.64"/>
</mask>
<g mask="url(#mask0_2959_73489)">
<path d="M22.6049 26.3189C20.9514 26.9051 19.0625 26.9896 17.1221 26.3882C14.6044 25.6081 12.555 23.5624 11.7716 21.0457C9.97041 15.2589 14.2701 9.92653 19.7925 9.92653C23.4594 9.92653 26.5872 12.2775 27.7478 15.5513" stroke="#6366F1" stroke-width="2.64" stroke-miterlimit="10" stroke-linecap="round" stroke-linejoin="round"/>
<path d="M45.1045 46.582H22.6055V15.5521H40.8859C43.2158 15.5521 45.1045 17.4408 45.1045 19.7707V46.582Z" stroke="#6366F1" stroke-width="2.64" stroke-miterlimit="10" stroke-linecap="round" stroke-linejoin="round"/>
<path d="M33.5386 15.5594C33.1734 13.7678 32.4579 12.1047 31.4803 10.6299L33.6816 8.42866L29.7042 4.45121L27.5029 6.65246C26.0281 5.67497 24.3651 4.9595 22.5734 4.59417V1.40381H16.9486V4.59417C15.1569 4.9595 13.494 5.67497 12.0191 6.65246L9.81782 4.45121L5.84037 8.42866L8.04171 10.6299C7.06413 12.1047 6.34866 13.7678 5.98333 15.5594H2.88672V21.1842H5.98333C6.34866 22.976 7.06413 24.6389 8.04171 26.1137L5.84037 28.3151L9.81782 32.2924L12.0191 30.0912C13.494 31.0687 15.1569 31.7842 16.9486 32.1495V35.2461H22.5734" stroke="#6366F1" stroke-width="2.64" stroke-miterlimit="10" stroke-linecap="round" stroke-linejoin="round"/>
<path d="M39.4805 15.551V21.1758H45.1052" stroke="#6366F1" stroke-width="2.64" stroke-miterlimit="10" stroke-linecap="round" stroke-linejoin="round"/>
<path d="M36.6367 27.5118L39.4491 26.8087V29.6211" stroke="#6366F1" stroke-width="2.64" stroke-miterlimit="10" stroke-linecap="round" stroke-linejoin="round"/>
<path d="M28.2305 35.2461L31.0428 32.4337L33.8552 35.2461L39.48 26.809" stroke="#6366F1" stroke-width="2.64" stroke-miterlimit="10" stroke-linecap="round" stroke-linejoin="round"/>
<path d="M28.2305 40.8711H39.48" stroke="#6366F1" stroke-width="2.64" stroke-miterlimit="10" stroke-linecap="round" stroke-linejoin="round"/>
</g>
</svg>
