<svg width="48" height="48" viewBox="0 0 48 48" fill="none" xmlns="http://www.w3.org/2000/svg">
<mask id="mask0_2959_72792" style="mask-type:luminance" maskUnits="userSpaceOnUse" x="0" y="0" width="48" height="48">
<path d="M46.5 46.5V1.5H1.5V46.5H46.5Z" fill="white" stroke="white" stroke-width="3"/>
</mask>
<g mask="url(#mask0_2959_72792)">
<path d="M41.8584 10.3602C44.7566 14.1478 46.5723 18.8831 46.5723 24.0205C46.5723 36.4464 36.4054 46.6133 23.9795 46.6133C11.5536 46.6133 1.38672 36.4464 1.38672 24.0205C1.38672 11.5947 11.5536 1.42775 23.9795 1.42775C29.117 1.42775 33.8523 3.24342 37.6399 6.14167" stroke="#3B82F6" stroke-width="3" stroke-miterlimit="10"/>
<path d="M44.594 7.12146H40.8629V3.39037L32.4258 11.8275V15.5586H36.1569L44.594 7.12146Z" stroke="#3B82F6" stroke-width="3" stroke-miterlimit="10"/>
<path d="M32.4333 15.5667L23.9961 24.0039" stroke="#3B82F6" stroke-width="3" stroke-miterlimit="10"/>
<path d="M35.2302 15.5596C36.9997 17.9114 38.0496 20.8338 38.0496 23.9967C38.0496 31.75 31.7409 38.0586 23.9877 38.0586C16.2344 38.0586 9.92578 31.75 9.92578 23.9967C9.92578 16.2434 16.2344 9.93481 23.9877 9.93481C27.1505 9.93481 30.073 10.9847 32.4248 12.7541" stroke="#3B82F6" stroke-width="3" stroke-miterlimit="10"/>
<path d="M29.6206 24.0042C29.6206 27.1106 27.1023 29.6289 23.9958 29.6289C20.8894 29.6289 18.3711 27.1106 18.3711 24.0042C18.3711 20.8977 20.8894 18.3794 23.9958 18.3794C27.1023 18.3794 29.6206 20.8977 29.6206 24.0042Z" stroke="#3B82F6" stroke-width="3" stroke-miterlimit="10"/>
</g>
</svg>
