<svg width="30" height="30" viewBox="0 0 30 30" fill="none" xmlns="http://www.w3.org/2000/svg">
<path d="M27.3066 15.3178V6.19307C27.3066 5.3348 26.5812 4.65723 25.6623 4.65723H23.4378H11.6865" stroke="#202020" stroke-width="1.67993" stroke-miterlimit="10" stroke-linecap="round" stroke-linejoin="round"/>
<path d="M6.6084 14.2356V9.31348" stroke="#202020" stroke-width="1.67993" stroke-miterlimit="10" stroke-linecap="round" stroke-linejoin="round"/>
<path d="M11.5855 4.65723L6.60449 9.3084H9.94128C10.8601 9.3084 11.5855 8.63105 11.5855 7.77306V4.65723Z" stroke="#202020" stroke-width="1.67993" stroke-miterlimit="10" stroke-linecap="round" stroke-linejoin="round"/>
<path d="M7.81836 1.00098H19.5213H21.7942C22.713 1.00098 23.4384 1.67833 23.4384 2.53632V4.6587" stroke="#202020" stroke-width="1.67993" stroke-miterlimit="10" stroke-linecap="round" stroke-linejoin="round"/>
<path d="M7.72905 1.00098L2.74805 5.65215H6.08483C7.00366 5.65215 7.72905 4.9748 7.72905 4.11681V1.00098Z" stroke="#202020" stroke-width="1.67993" stroke-miterlimit="10" stroke-linecap="round" stroke-linejoin="round"/>
<path d="M14.9758 17.6606L12.2677 14.6341C12.0259 14.3631 11.6874 14.2275 11.3005 14.2275H2.64421C1.72539 14.2275 1 14.9051 1 15.7634V18.3833V27.4628C1 28.321 1.77375 28.9986 2.64421 28.9986H27.3558C28.2746 28.9986 29 28.321 29 27.4628V17.6606H14.9758Z" stroke="#202020" stroke-width="1.67993" stroke-miterlimit="10" stroke-linecap="round" stroke-linejoin="round"/>
<path d="M12.984 19.0688L10.7111 16.54H4.2793" stroke="#202020" stroke-width="1.67993" stroke-miterlimit="10" stroke-linecap="round" stroke-linejoin="round"/>
<path d="M14.3057 8.32129H23.6874" stroke="#202020" stroke-width="1.67993" stroke-miterlimit="10" stroke-linecap="round" stroke-linejoin="round"/>
<path d="M10.2734 11.6104H23.6689" stroke="#202020" stroke-width="1.67993" stroke-miterlimit="10" stroke-linecap="round" stroke-linejoin="round"/>
<path d="M12.9873 15.3135H27.2533H27.35C28.2688 15.3135 28.9942 15.9908 28.9942 16.8488V19.784" stroke="#202020" stroke-width="1.67993" stroke-miterlimit="10" stroke-linecap="round" stroke-linejoin="round"/>
<path d="M25.323 21.6338H19.7617" stroke="#202020" stroke-width="1.67993" stroke-miterlimit="10" stroke-linecap="round" stroke-linejoin="round"/>
<path d="M25.3213 24.1338H21.6943" stroke="#202020" stroke-width="1.67993" stroke-miterlimit="10" stroke-linecap="round" stroke-linejoin="round"/>
</svg>
