<svg width="28" height="28" viewBox="0 0 28 28" fill="none" xmlns="http://www.w3.org/2000/svg">
<path d="M25.1595 0.89124C24.9229 0.866121 24.683 0.866121 24.4456 0.89124L24.2713 0.90962C22.601 1.00826 21.2735 2.33408 21.2735 3.95091C21.2761 4.45636 21.4099 4.95201 21.6627 5.39436L17.1689 9.67507C15.5565 8.55083 13.4006 8.45464 11.6846 9.43123L9.09716 6.50758C9.76412 5.7497 10.1056 4.79517 10.0626 3.80019C10.0169 2.74211 9.54094 1.76368 8.72284 1.04625C7.03389 -0.434575 4.39499 -0.331034 2.84046 1.27783C1.28529 2.88609 1.39398 5.39987 3.08293 6.8813C3.85409 7.55769 4.85485 7.92958 5.90385 7.92958H5.91093C6.59782 7.92652 7.27186 7.75987 7.87258 7.44618L10.4999 10.414C9.7101 11.2748 9.27596 12.3702 9.27339 13.5202C9.2766 14.1941 9.43161 14.8681 9.7236 15.4819L6.03699 17.8034C5.39125 17.1515 4.49468 16.7808 3.54923 16.7802H3.50806C2.58641 16.7802 1.71685 17.1178 1.05632 17.7323C0.386144 18.3566 0.011179 19.1923 0.000245221 20.0849C-0.0106886 20.9782 0.344338 21.8212 0.999723 22.4596C1.65511 23.0986 2.53174 23.4558 3.46947 23.4656C4.40849 23.4754 5.2922 23.1379 5.96238 22.5136C6.63256 21.8899 7.00816 21.0542 7.01845 20.1615C7.02296 19.7908 6.96379 19.4269 6.84287 19.0771L10.588 16.7251C11.4724 17.6508 12.7021 18.2034 14.0142 18.2653L14.4483 22.0645C13.7061 22.3003 13.0874 22.7801 12.6937 23.4313C12.2667 24.1365 12.1541 24.9569 12.3754 25.7429C12.5966 26.5284 13.1259 27.1852 13.8662 27.5914C14.3582 27.8615 14.9043 28 15.4581 28C15.7365 28 16.0163 27.9651 16.2922 27.8946C17.9953 27.459 19.0083 25.7852 18.551 24.1629C18.2249 23.0061 17.2396 22.1545 16.0131 21.9523L15.5976 18.0846C16.7206 17.7935 17.6918 17.1478 18.3652 16.2429L20.9745 17.467C20.9751 17.4811 20.9758 17.4958 20.9764 17.5099C20.9725 18.1526 21.2311 18.7585 21.7038 19.2168C22.1785 19.6769 22.8133 19.9336 23.4905 19.9391C24.1678 19.9416 24.8071 19.6983 25.2901 19.2462C25.7731 18.7934 26.0426 18.1893 26.0484 17.5442C26.0542 16.8991 25.7956 16.2901 25.321 15.8299C24.8463 15.3698 24.2115 15.1131 23.5343 15.1076C22.7361 15.1003 21.992 15.4476 21.5083 16.0425L19.0784 14.9036C19.5537 13.4834 19.283 11.9076 18.3562 10.7056L22.7515 6.45244C23.2558 6.76735 23.8539 6.94135 24.4579 6.94563C26.2053 7.12637 27.7837 5.92309 27.9798 4.25786C28.1766 2.58895 26.9115 1.07872 25.1595 0.89124ZM5.91736 6.43896H5.89485C4.45802 6.43896 3.28874 5.32574 3.28874 3.95704C3.28874 2.58833 4.45802 1.4745 5.89485 1.4745C7.33168 1.4745 8.50095 2.58833 8.50095 3.95642C8.49709 5.31103 7.33682 6.42487 5.91736 6.43896ZM3.56916 21.8696H3.52672C3.02054 21.8586 2.54846 21.6613 2.19794 21.3127C1.84613 20.9635 1.65897 20.5052 1.66926 20.0218C1.69112 19.0373 2.53946 18.25 3.56852 18.25C3.58203 18.25 3.59553 18.2506 3.60904 18.2506C4.63424 18.2708 5.46907 19.0826 5.46907 20.0598C5.46907 21.037 4.61688 21.8696 3.56916 21.8696ZM15.4651 26.4561C14.5731 26.4561 13.8476 25.765 13.8476 24.9152C13.8476 24.0654 14.5731 23.3743 15.4651 23.3743C16.3572 23.3743 17.0827 24.0654 17.0827 24.9152C17.0827 25.765 16.3572 26.4561 15.4651 26.4561ZM14.2682 16.7594H14.0437V16.7661C12.2609 16.6558 10.8459 15.2387 10.8459 13.5122C10.8459 11.7857 12.3812 10.2516 14.2688 10.2516C16.1565 10.2516 17.6924 11.714 17.6924 13.511C17.6808 15.2988 16.145 16.7557 14.2682 16.7594ZM22.4891 17.5056V17.4989C22.4917 17.0957 22.774 16.7538 23.1593 16.6405L23.4198 16.6356H23.4378C23.6848 16.6356 23.9176 16.7251 24.0958 16.8886C24.2784 17.0565 24.3813 17.282 24.3858 17.5234C24.391 17.7648 24.2964 17.9933 24.1202 18.1673C23.9446 18.3407 23.7079 18.4387 23.4545 18.4436C23.2011 18.4454 22.9612 18.3578 22.7786 18.1906C22.5965 18.0227 22.493 17.7978 22.4885 17.5558C22.4885 17.5393 22.4885 17.5221 22.4891 17.5056ZM24.4707 5.46971C23.5793 5.46971 22.8532 4.77801 22.8532 3.92824C22.8532 3.07847 23.5793 2.38738 24.4707 2.38738C25.3621 2.38738 26.0889 3.07908 26.0889 3.92824C26.0889 4.7774 25.3628 5.46971 24.4707 5.46971Z" fill="#202020"/>
</svg>
