<svg width="30" height="30" viewBox="0 0 30 30" fill="none" xmlns="http://www.w3.org/2000/svg">
<path d="M3.37248 29.0028C2.06222 29.0028 1 27.9405 1 26.6303C1 25.32 2.06222 24.2578 3.37248 24.2578C4.68273 24.2578 5.74495 25.32 5.74495 26.6303C5.74495 27.9405 4.68273 29.0028 3.37248 29.0028Z" stroke="#202020" stroke-width="1.49993" stroke-miterlimit="10" stroke-linecap="round" stroke-linejoin="round"/>
<path d="M15.0004 29.0028C13.6901 29.0028 12.6279 27.9405 12.6279 26.6303C12.6279 25.32 13.6901 24.2578 15.0004 24.2578C16.3107 24.2578 17.3729 25.32 17.3729 26.6303C17.3729 27.9405 16.3107 29.0028 15.0004 29.0028Z" stroke="#202020" stroke-width="1.49993" stroke-miterlimit="10" stroke-linecap="round" stroke-linejoin="round"/>
<path d="M26.6274 29.0028C25.3171 29.0028 24.2549 27.9405 24.2549 26.6303C24.2549 25.32 25.3171 24.2578 26.6274 24.2578C27.9376 24.2578 28.9998 25.32 28.9998 26.6303C28.9998 27.9405 27.9376 29.0028 26.6274 29.0028Z" stroke="#202020" stroke-width="1.49993" stroke-miterlimit="10" stroke-linecap="round" stroke-linejoin="round"/>
<path d="M3.37109 24.2528V21.8803C3.37109 20.57 4.43331 19.5078 5.74357 19.5078H10.2513" stroke="#202020" stroke-width="1.49993" stroke-miterlimit="10" stroke-linecap="round" stroke-linejoin="round"/>
<path d="M19.7402 19.5078H24.2479C25.5582 19.5078 26.6204 20.57 26.6204 21.8803V24.2528" stroke="#202020" stroke-width="1.49993" stroke-miterlimit="10" stroke-linecap="round" stroke-linejoin="round"/>
<path d="M14.998 17.5938V24.2367" stroke="#202020" stroke-width="1.49993" stroke-miterlimit="10" stroke-linecap="round" stroke-linejoin="round"/>
<path d="M16.1865 3.37668L14.506 1.69613C14.0602 1.25038 13.4557 1 12.8254 1H10.2448C8.93226 1 7.86816 2.0641 7.86816 3.37668V10.5067C7.86816 11.8193 8.93226 12.8834 10.2448 12.8834H19.7515C21.0641 12.8834 22.1282 11.8193 22.1282 10.5067V5.75335C22.1282 4.44077 21.0641 3.37668 19.7515 3.37668H16.1865Z" stroke="#202020" stroke-width="1.49993" stroke-miterlimit="10" stroke-linecap="round" stroke-linejoin="round"/>
</svg>
