<svg width="28" height="28" viewBox="0 0 28 28" fill="none" xmlns="http://www.w3.org/2000/svg">
<path d="M14 6.79395C14.6954 6.79398 15.366 6.89386 16 7.07715L15.9033 7.18164C14.2277 8.97118 15.4985 11.9023 17.9531 11.9023C18.0433 11.9024 18.1266 11.9376 18.1885 11.998L18.2422 12.0664L20.0293 15.0654V15.0664C20.2623 15.4635 20.5906 15.7293 20.9521 15.8799C20.1802 18.7533 17.6739 20.9155 14.625 21.1768L12.8857 19.416C12.4456 18.9704 12.1992 18.3727 12.1992 17.7471C12.1992 17.4253 12.2948 17.1681 12.4814 16.9814H12.4824L14.3525 15.1035C15.8369 13.6109 15.2754 11.0936 13.3203 10.3652V9.52246C13.3203 8.70156 13.1105 7.89292 12.7139 7.17578V7.1748L12.5811 6.93457C13.0398 6.84313 13.5145 6.79395 14 6.79395Z" fill="#202020" stroke="#202020" stroke-width="1.12009"/>
<path d="M14 6.79395C14.6954 6.79398 15.366 6.89386 16 7.07715L15.9033 7.18164C14.2277 8.97118 15.4985 11.9023 17.9531 11.9023C18.0433 11.9024 18.1266 11.9376 18.1885 11.998L18.2422 12.0664L20.0293 15.0654V15.0664C20.2623 15.4635 20.5906 15.7293 20.9521 15.8799C20.1802 18.7533 17.6739 20.9155 14.625 21.1768L12.8857 19.416C12.4456 18.9704 12.1992 18.3727 12.1992 17.7471C12.1992 17.4253 12.2948 17.1681 12.4814 16.9814H12.4824L14.3525 15.1035C15.8369 13.6109 15.2754 11.0936 13.3203 10.3652V9.52246C13.3203 8.70156 13.1105 7.89292 12.7139 7.17578V7.1748L12.5811 6.93457C13.0398 6.84313 13.5145 6.79395 14 6.79395Z" fill="#202020" stroke="#202020" stroke-width="1.12009"/>
<path d="M6.22896 13.9944C6.22896 10.9727 7.95418 8.35618 10.4694 7.07324L11.0366 8.09622C11.2763 8.53174 11.4046 9.02128 11.4046 9.51758V10.4562C11.4046 11.2192 11.8908 11.8944 12.6133 12.1375C13.2986 12.3671 13.5012 13.2381 12.9914 13.7513L11.121 15.6284C10.5572 16.1956 10.2837 16.9519 10.2837 17.7419C10.2837 18.8695 10.7294 19.9499 11.5194 20.7534L12.3398 21.584C8.84548 20.8277 6.22559 17.7183 6.22559 13.9944H6.22896Z" fill="#202020"/>
<path d="M6.22896 13.9944C6.22896 10.9727 7.95418 8.35618 10.4694 7.07324L11.0366 8.09622C11.2763 8.53174 11.4046 9.02128 11.4046 9.51758V10.4562C11.4046 11.2192 11.8908 11.8944 12.6133 12.1375C13.2986 12.3671 13.5012 13.2381 12.9914 13.7513L11.121 15.6284C10.5572 16.1956 10.2837 16.9519 10.2837 17.7419C10.2837 18.8695 10.7294 19.9499 11.5194 20.7534L12.3398 21.584C8.84548 20.8277 6.22559 17.7183 6.22559 13.9944H6.22896Z" fill="#202020"/>
<path d="M18.2402 7.50098C20.3638 8.8852 21.7683 11.2856 21.7683 14.0102C21.7683 14.0473 21.7683 14.179 21.6771 14.1047L19.8878 11.1C19.4826 10.4214 18.75 10.0027 17.96 10.0027C17.17 10.0027 16.7716 9.06751 17.3084 8.49694L18.2402 7.50098Z" fill="#202020"/>
<path d="M18.2402 7.50098C20.3638 8.8852 21.7683 11.2856 21.7683 14.0102C21.7683 14.0473 21.7683 14.179 21.6771 14.1047L19.8878 11.1C19.4826 10.4214 18.75 10.0027 17.96 10.0027C17.17 10.0027 16.7716 9.06751 17.3084 8.49694L18.2402 7.50098Z" fill="#202020"/>
<path d="M22.7959 16.3963L27.5597 14.634C28.1471 14.4179 28.1471 13.584 27.5597 13.3679L22.8162 11.6123C23.228 13.1586 23.2145 14.8534 22.7959 16.3963Z" fill="#202020"/>
<path d="M22.7959 16.3963L27.5597 14.634C28.1471 14.4179 28.1471 13.584 27.5597 13.3679L22.8162 11.6123C23.228 13.1586 23.2145 14.8534 22.7959 16.3963Z" fill="#202020"/>
<path d="M14.0094 4.88699C13.1788 4.88699 12.3753 4.9984 11.6123 5.20435L13.3747 0.440588C13.5907 -0.146863 14.4246 -0.146863 14.6407 0.440588L16.4031 5.20435C15.6401 4.9984 14.8365 4.88699 14.006 4.88699H14.0094Z" fill="#202020"/>
<path d="M14.0094 4.88699C13.1788 4.88699 12.3753 4.9984 11.6123 5.20435L13.3747 0.440588C13.5907 -0.146863 14.4246 -0.146863 14.6407 0.440588L16.4031 5.20435C15.6401 4.9984 14.8365 4.88699 14.006 4.88699H14.0094Z" fill="#202020"/>
<path d="M0.440588 13.3747L5.20435 11.6123C4.9984 12.3753 4.88699 13.1788 4.88699 14.0094C4.88699 14.8399 4.9984 15.6434 5.20435 16.4064L0.440588 14.6441C-0.146863 14.428 -0.146863 13.5941 0.440588 13.378V13.3747Z" fill="#202020"/>
<path d="M0.440588 13.3747L5.20435 11.6123C4.9984 12.3753 4.88699 13.1788 4.88699 14.0094C4.88699 14.8399 4.9984 15.6434 5.20435 16.4064L0.440588 14.6441C-0.146863 14.428 -0.146863 13.5941 0.440588 13.378V13.3747Z" fill="#202020"/>
<path d="M13.3747 27.5597L11.6123 22.7959C12.3753 23.0018 13.1788 23.1133 14.0094 23.1133C14.8399 23.1133 15.6434 23.0018 16.4064 22.7959L14.6441 27.5597C14.428 28.1471 13.5941 28.1471 13.378 27.5597H13.3747Z" fill="#202020"/>
<path d="M13.3747 27.5597L11.6123 22.7959C12.3753 23.0018 13.1788 23.1133 14.0094 23.1133C14.8399 23.1133 15.6434 23.0018 16.4064 22.7959L14.6441 27.5597C14.428 28.1471 13.5941 28.1471 13.378 27.5597H13.3747Z" fill="#202020"/>
<path d="M7.18216 2.99062C7.81013 2.58886 7.99244 1.75495 7.59068 1.12361C7.18892 0.492264 6.35501 0.313328 5.72366 0.71509C3.6507 2.04192 1.91874 3.84816 0.683063 5.98189C0.308309 6.62674 0.531136 7.4539 1.17598 7.82865C1.82083 8.2034 2.64799 7.98058 3.02274 7.33573C4.04234 5.57676 5.47045 4.08449 7.18216 2.99062Z" fill="#202020"/>
<path d="M7.18216 2.99062C7.81013 2.58886 7.99244 1.75495 7.59068 1.12361C7.18892 0.492264 6.35501 0.313328 5.72366 0.71509C3.6507 2.04192 1.91874 3.84816 0.683063 5.98189C0.308309 6.62674 0.531136 7.4539 1.17598 7.82865C1.82083 8.2034 2.64799 7.98058 3.02274 7.33573C4.04234 5.57676 5.47045 4.08449 7.18216 2.99062Z" fill="#202020"/>
<path d="M22.28 0.714251C21.6521 0.312488 20.8181 0.494801 20.413 1.12277C20.0079 1.75073 20.1936 2.58464 20.8215 2.98978C22.5299 4.08366 23.9614 5.57592 24.981 7.33489C25.3557 7.97974 26.1795 8.19919 26.8277 7.82781C27.4759 7.45644 27.6954 6.62928 27.3206 5.98106C26.085 3.84732 24.353 2.04108 22.28 0.714251Z" fill="#202020"/>
<path d="M22.28 0.714251C21.6521 0.312488 20.8181 0.494801 20.413 1.12277C20.0079 1.75073 20.1936 2.58464 20.8215 2.98978C22.5299 4.08366 23.9614 5.57592 24.981 7.33489C25.3557 7.97974 26.1795 8.19919 26.8277 7.82781C27.4759 7.45644 27.6954 6.62928 27.3206 5.98106C26.085 3.84732 24.353 2.04108 22.28 0.714251Z" fill="#202020"/>
<path d="M3.02198 20.0055C2.64722 19.3607 1.82344 19.1412 1.17522 19.5126C0.526998 19.884 0.310924 20.7112 0.682301 21.3594C1.91797 23.4931 3.64994 25.2993 5.7229 26.6262C6.35087 27.0279 7.18478 26.8456 7.58992 26.2177C7.99168 25.5897 7.80937 24.7558 7.1814 24.3506C5.47307 23.2568 4.04158 21.7645 3.02198 20.0055Z" fill="#202020"/>
<path d="M3.02198 20.0055C2.64722 19.3607 1.82344 19.1412 1.17522 19.5126C0.526998 19.884 0.310924 20.7112 0.682301 21.3594C1.91797 23.4931 3.64994 25.2993 5.7229 26.6262C6.35087 27.0279 7.18478 26.8456 7.58992 26.2177C7.99168 25.5897 7.80937 24.7558 7.1814 24.3506C5.47307 23.2568 4.04158 21.7645 3.02198 20.0055Z" fill="#202020"/>
<path d="M27.3191 21.3609C27.6939 20.716 27.4711 19.8889 26.8262 19.5141C26.1814 19.1394 25.3542 19.3622 24.9795 20.007C23.9599 21.766 22.5317 23.2583 20.82 24.3521C20.1921 24.7539 20.0098 25.5878 20.4115 26.2192C20.8133 26.8471 21.6472 27.0294 22.2785 26.6277C24.3515 25.3008 26.0835 23.4946 27.3191 21.3609Z" fill="#202020"/>
<path d="M27.3191 21.3609C27.6939 20.716 27.4711 19.8889 26.8262 19.5141C26.1814 19.1394 25.3542 19.3622 24.9795 20.007C23.9599 21.766 22.5317 23.2583 20.82 24.3521C20.1921 24.7539 20.0098 25.5878 20.4115 26.2192C20.8133 26.8471 21.6472 27.0294 22.2785 26.6277C24.3515 25.3008 26.0835 23.4946 27.3191 21.3609Z" fill="#202020"/>
</svg>
