<svg width="28" height="28" viewBox="0 0 28 28" fill="none" xmlns="http://www.w3.org/2000/svg">
<mask id="mask0_2593_66995" style="mask-type:luminance" maskUnits="userSpaceOnUse" x="0" y="0" width="28" height="28">
<path d="M27.1602 27.1602V0.839844H0.839844V27.1602H27.1602Z" fill="white" stroke="white" stroke-width="1.67993"/>
</mask>
<g mask="url(#mask0_2593_66995)">
<path d="M24.421 6.03989C26.1116 8.24928 27.1707 11.0115 27.1707 14.0084C27.1707 21.2568 21.2401 27.1875 13.9916 27.1875C6.74316 27.1875 0.8125 21.2568 0.8125 14.0084C0.8125 6.75998 6.74316 0.829271 13.9916 0.829271C16.9885 0.829271 19.7508 1.88841 21.9602 3.57906" stroke="#202020" stroke-width="1.67993" stroke-miterlimit="10"/>
<path d="M26.0122 4.14865H23.8357V1.97218L18.9141 6.89384V9.07031H21.0905L26.0122 4.14865Z" stroke="#202020" stroke-width="1.67993" stroke-miterlimit="10"/>
<path d="M18.9217 9.07828L14 14" stroke="#202020" stroke-width="1.67993" stroke-miterlimit="10"/>
<path d="M20.55 9.07088C21.5822 10.4428 22.1946 12.1475 22.1946 13.9925C22.1946 18.5153 18.5146 22.1953 13.9918 22.1953C9.4691 22.1953 5.78906 18.5153 5.78906 13.9925C5.78906 9.46981 9.4691 5.78978 13.9918 5.78978C15.8368 5.78978 17.5416 6.40219 18.9135 7.43438" stroke="#202020" stroke-width="1.67993" stroke-miterlimit="10"/>
<path d="M17.281 14.0001C17.281 15.8122 15.812 17.2812 13.9999 17.2812C12.1878 17.2812 10.7188 15.8122 10.7188 14.0001C10.7188 12.188 12.1878 10.719 13.9999 10.719C15.812 10.719 17.281 12.188 17.281 14.0001Z" stroke="#202020" stroke-width="1.67993" stroke-miterlimit="10"/>
</g>
</svg>
