<svg width="18" height="18" viewBox="0 0 18 18" fill="none" xmlns="http://www.w3.org/2000/svg">
<path d="M10.9268 4.39414C10.3343 4.14455 9.68319 4.00781 8.99952 4.00781C8.49382 4.00781 8.00548 4.08378 7.54536 4.22268L7.8579 4.78698C8.08362 5.19501 8.20299 5.65514 8.20299 6.12177V6.72514C8.20299 6.84234 8.27678 6.94652 8.38964 6.98341C9.44011 7.33719 9.75265 8.6698 8.97131 9.45548L7.76891 10.6622C7.56707 10.8641 7.48242 11.1288 7.48242 11.4088C7.48242 11.9058 7.67776 12.3812 8.02719 12.7349L9.26214 13.9851C11.5779 13.8657 13.477 12.1663 13.9003 9.94382C13.6268 9.92863 13.3555 9.79189 13.1862 9.50323L12.0359 7.57159C11.9317 7.39796 11.7451 7.29161 11.541 7.29161C10.2779 7.29161 9.62459 5.78319 10.4862 4.86294L10.9247 4.39414H10.9268Z" fill="#202020"/>
<path d="M10.9268 4.39414C10.3343 4.14455 9.68319 4.00781 8.99952 4.00781C8.49382 4.00781 8.00548 4.08378 7.54536 4.22268L7.8579 4.78698C8.08362 5.19501 8.20299 5.65514 8.20299 6.12177V6.72514C8.20299 6.84234 8.27678 6.94652 8.38964 6.98341C9.44011 7.33719 9.75265 8.6698 8.97131 9.45548L7.76891 10.6622C7.56707 10.8641 7.48242 11.1288 7.48242 11.4088C7.48242 11.9058 7.67776 12.3812 8.02719 12.7349L9.26214 13.9851C11.5779 13.8657 13.477 12.1663 13.9003 9.94382C13.6268 9.92863 13.3555 9.79189 13.1862 9.50323L12.0359 7.57159C11.9317 7.39796 11.7451 7.29161 11.541 7.29161C10.2779 7.29161 9.62459 5.78319 10.4862 4.86294L10.9247 4.39414H10.9268Z" fill="#202020"/>
<path d="M4.00412 8.99617C4.00412 7.05367 5.11319 5.37162 6.73013 4.54688L7.09475 5.2045C7.24885 5.48448 7.33133 5.79919 7.33133 6.11823V6.7216C7.33133 7.21211 7.64386 7.64619 8.10832 7.80246C8.54891 7.95004 8.67914 8.51 8.35141 8.8399L7.14901 10.0466C6.78656 10.4113 6.61076 10.8974 6.61076 11.4053C6.61076 12.1302 6.89725 12.8247 7.40512 13.3413L7.93252 13.8752C5.68617 13.389 4.00195 11.3901 4.00195 8.99617H4.00412Z" fill="#202020"/>
<path d="M4.00412 8.99617C4.00412 7.05367 5.11319 5.37162 6.73013 4.54688L7.09475 5.2045C7.24885 5.48448 7.33133 5.79919 7.33133 6.11823V6.7216C7.33133 7.21211 7.64386 7.64619 8.10832 7.80246C8.54891 7.95004 8.67914 8.51 8.35141 8.8399L7.14901 10.0466C6.78656 10.4113 6.61076 10.8974 6.61076 11.4053C6.61076 12.1302 6.89725 12.8247 7.40512 13.3413L7.93252 13.8752C5.68617 13.389 4.00195 11.3901 4.00195 8.99617H4.00412Z" fill="#202020"/>
<path d="M11.7259 4.82227C13.091 5.71212 13.9939 7.25527 13.9939 9.00677C13.9939 9.03064 13.9939 9.11529 13.9353 9.06754L12.785 7.1359C12.5246 6.69965 12.0536 6.43052 11.5457 6.43052C11.0378 6.43052 10.7817 5.82932 11.1268 5.46253L11.7259 4.82227Z" fill="#202020"/>
<path d="M11.7259 4.82227C13.091 5.71212 13.9939 7.25527 13.9939 9.00677C13.9939 9.03064 13.9939 9.11529 13.9353 9.06754L12.785 7.1359C12.5246 6.69965 12.0536 6.43052 11.5457 6.43052C11.0378 6.43052 10.7817 5.82932 11.1268 5.46253L11.7259 4.82227Z" fill="#202020"/>
<path d="M14.6543 10.5403L17.7167 9.40734C18.0944 9.26843 18.0944 8.73235 17.7167 8.59344L14.6673 7.46484C14.9321 8.45888 14.9234 9.54841 14.6543 10.5403Z" fill="#202020"/>
<path d="M14.6543 10.5403L17.7167 9.40734C18.0944 9.26843 18.0944 8.73235 17.7167 8.59344L14.6673 7.46484C14.9321 8.45888 14.9234 9.54841 14.6543 10.5403Z" fill="#202020"/>
<path d="M9.00582 3.14163C8.4719 3.14163 7.95535 3.21326 7.46484 3.34565L8.59779 0.283235C8.73669 -0.0944118 9.27278 -0.0944118 9.41168 0.283235L10.5446 3.34565C10.0541 3.21326 9.53756 3.14163 9.00365 3.14163H9.00582Z" fill="#202020"/>
<path d="M9.00582 3.14163C8.4719 3.14163 7.95535 3.21326 7.46484 3.34565L8.59779 0.283235C8.73669 -0.0944118 9.27278 -0.0944118 9.41168 0.283235L10.5446 3.34565C10.0541 3.21326 9.53756 3.14163 9.00365 3.14163H9.00582Z" fill="#202020"/>
<path d="M0.283235 8.59778L3.34565 7.46484C3.21326 7.95535 3.14163 8.4719 3.14163 9.00582C3.14163 9.53973 3.21326 10.0563 3.34565 10.5468L0.283235 9.41385C-0.0944118 9.27495 -0.0944118 8.73886 0.283235 8.59996V8.59778Z" fill="#202020"/>
<path d="M0.283235 8.59778L3.34565 7.46484C3.21326 7.95535 3.14163 8.4719 3.14163 9.00582C3.14163 9.53973 3.21326 10.0563 3.34565 10.5468L0.283235 9.41385C-0.0944118 9.27495 -0.0944118 8.73886 0.283235 8.59996V8.59778Z" fill="#202020"/>
<path d="M8.59778 17.7167L7.46484 14.6543C7.95535 14.7867 8.4719 14.8583 9.00582 14.8583C9.53973 14.8583 10.0563 14.7867 10.5468 14.6543L9.41385 17.7167C9.27495 18.0944 8.73886 18.0944 8.59996 17.7167H8.59778Z" fill="#202020"/>
<path d="M8.59778 17.7167L7.46484 14.6543C7.95535 14.7867 8.4719 14.8583 9.00582 14.8583C9.53973 14.8583 10.0563 14.7867 10.5468 14.6543L9.41385 17.7167C9.27495 18.0944 8.73886 18.0944 8.59996 17.7167H8.59778Z" fill="#202020"/>
<path d="M4.61731 1.92275C5.02101 1.66447 5.13821 1.12839 4.87993 0.722527C4.62165 0.316665 4.08557 0.201634 3.67971 0.45991C2.34709 1.31287 1.23368 2.47403 0.439321 3.84571C0.198408 4.26026 0.341654 4.792 0.756197 5.03291C1.17074 5.27383 1.70249 5.13058 1.9434 4.71604C2.59886 3.58527 3.51693 2.62596 4.61731 1.92275Z" fill="#202020"/>
<path d="M4.61731 1.92275C5.02101 1.66447 5.13821 1.12839 4.87993 0.722527C4.62165 0.316665 4.08557 0.201634 3.67971 0.45991C2.34709 1.31287 1.23368 2.47403 0.439321 3.84571C0.198408 4.26026 0.341654 4.792 0.756197 5.03291C1.17074 5.27383 1.70249 5.13058 1.9434 4.71604C2.59886 3.58527 3.51693 2.62596 4.61731 1.92275Z" fill="#202020"/>
<path d="M14.3227 0.459371C13.919 0.201095 13.3829 0.318296 13.1224 0.721987C12.862 1.12568 12.9814 1.66176 13.3851 1.92221C14.4833 2.62542 15.4035 3.58473 16.059 4.7155C16.2999 5.13004 16.8295 5.27112 17.2462 5.03237C17.6629 4.79363 17.804 4.26189 17.5631 3.84517C16.7687 2.47349 15.6553 1.31233 14.3227 0.459371Z" fill="#202020"/>
<path d="M14.3227 0.459371C13.919 0.201095 13.3829 0.318296 13.1224 0.721987C12.862 1.12568 12.9814 1.66176 13.3851 1.92221C14.4833 2.62542 15.4035 3.58473 16.059 4.7155C16.2999 5.13004 16.8295 5.27112 17.2462 5.03237C17.6629 4.79363 17.804 4.26189 17.5631 3.84517C16.7687 2.47349 15.6553 1.31233 14.3227 0.459371Z" fill="#202020"/>
<path d="M1.94291 12.8607C1.702 12.4462 1.17242 12.3051 0.755708 12.5438C0.338994 12.7826 0.200089 13.3143 0.438832 13.731C1.23319 15.1027 2.3466 16.2639 3.67922 17.1168C4.08291 17.3751 4.619 17.2579 4.87944 16.8542C5.13772 16.4505 5.02052 15.9144 4.61683 15.654C3.51861 14.9508 2.59837 13.9915 1.94291 12.8607Z" fill="#202020"/>
<path d="M1.94291 12.8607C1.702 12.4462 1.17242 12.3051 0.755708 12.5438C0.338994 12.7826 0.200089 13.3143 0.438832 13.731C1.23319 15.1027 2.3466 16.2639 3.67922 17.1168C4.08291 17.3751 4.619 17.2579 4.87944 16.8542C5.13772 16.4505 5.02052 15.9144 4.61683 15.654C3.51861 14.9508 2.59837 13.9915 1.94291 12.8607Z" fill="#202020"/>
<path d="M17.5621 13.732C17.803 13.3174 17.6598 12.7857 17.2452 12.5448C16.8307 12.3039 16.2989 12.4471 16.058 12.8617C15.4026 13.9924 14.4845 14.9517 13.3841 15.655C12.9804 15.9132 12.8632 16.4493 13.1215 16.8552C13.3798 17.2589 13.9158 17.3761 14.3217 17.1178C15.6543 16.2648 16.7677 15.1037 17.5621 13.732Z" fill="#202020"/>
<path d="M17.5621 13.732C17.803 13.3174 17.6598 12.7857 17.2452 12.5448C16.8307 12.3039 16.2989 12.4471 16.058 12.8617C15.4026 13.9924 14.4845 14.9517 13.3841 15.655C12.9804 15.9132 12.8632 16.4493 13.1215 16.8552C13.3798 17.2589 13.9158 17.3761 14.3217 17.1178C15.6543 16.2648 16.7677 15.1037 17.5621 13.732Z" fill="#202020"/>
</svg>
